<svg xmlns="http://www.w3.org/2000/svg" viewBox="0 0 1200 360" width="1200" height="360">
  <defs>
    <linearGradient id="rb" x1="170" y1="0" x2="1030" y2="0" gradientUnits="userSpaceOnUse">
      <stop offset="0%" stop-color="#b090e8"></stop>
      <stop offset="16%" stop-color="#7896e0"></stop>
      <stop offset="33%" stop-color="#48c8d8"></stop>
      <stop offset="50%" stop-color="#58d8a0"></stop>
      <stop offset="66%" stop-color="#deca68"></stop>
      <stop offset="83%" stop-color="#e088b4"></stop>
      <stop offset="100%" stop-color="#a878d0"></stop>
    </linearGradient>
    <filter id="glowWide" x="-10%" y="-500%" width="120%" height="1100%">
      <feGaussianBlur stdDeviation="14"></feGaussianBlur>
    </filter>
    <filter id="glowMid" x="-10%" y="-200%" width="120%" height="500%">
      <feGaussianBlur stdDeviation="4"></feGaussianBlur>
    </filter>
    <filter id="stars" color-interpolation-filters="sRGB">
      <feTurbulence type="turbulence" baseFrequency="0.58 0.58" numOctaves="2" seed="17" result="n"></feTurbulence>
      <feColorMatrix in="n" type="matrix" values="0 0 0 0 1  0 0 0 0 1  0 0 0 0 1  0 0 0 16 -14.5"></feColorMatrix>
    </filter>
    <mask id="starMask">
      <rect width="1200" height="360" fill="#fff" filter="url(#stars)"></rect>
    </mask>
    <radialGradient id="moon">
      <stop offset="0" stop-color="#fff" stop-opacity="0.92"></stop>
      <stop offset="1" stop-color="#fff" stop-opacity="0"></stop>
    </radialGradient>
    <marker id="arrow" viewBox="0 0 10 10" refX="7" refY="5" markerWidth="7" markerHeight="7" orient="auto-start-reverse">
      <path d="M0 0 L10 5 L0 10 z" fill="#fff" fill-opacity="0.50"></path>
    </marker>
  </defs>

  

  
  <ellipse cx="600" cy="185" rx="510" ry="108" fill="#18296a" opacity="0.48" style="filter:blur(52px)"></ellipse>

  
  <rect width="1200" height="360" fill="#fff" mask="url(#starMask)" opacity="0.70"></rect>

  
  <g stroke="#fff" stroke-opacity="0.09" stroke-width="1">
    <line x1="170" y1="68" x2="170" y2="306"></line>
    <line x1="277.5" y1="68" x2="277.5" y2="306"></line>
    <line x1="385" y1="68" x2="385" y2="306"></line>
    <line x1="492.5" y1="68" x2="492.5" y2="306"></line>
    <line x1="600" y1="68" x2="600" y2="306"></line>
    <line x1="707.5" y1="68" x2="707.5" y2="306"></line>
    <line x1="815" y1="68" x2="815" y2="306"></line>
    <line x1="922.5" y1="68" x2="922.5" y2="306"></line>
    <line x1="1030" y1="68" x2="1030" y2="306"></line>
  </g>

  
  <path d="M 170 220.3 L 277.5 214.2 L 385 198.8 L 492.5 177.4&#xA;           L 600 138.4 L 707.5 112.8 L 815 99.5 L 922.5 87.5 L 1030 83.2&#xA;           L 1030 159.2 L 922.5 157.5 L 815 163.5 L 707.5 170.8&#xA;           L 600 190.4 L 492.5 223.4 L 385 238.8 L 277.5 248.2 L 170 248.3 Z" fill="url(#rb)" fill-opacity="0.07" stroke="none"></path>

  
  
  <path d="M 170 236 L 277.5 225 L 385 234 L 492.5 208 L 600 170 L 707.5 135 L 815 138 L 922.5 130 L 1030 130" fill="none" stroke="#fff" stroke-width="1.2" stroke-opacity="0.30" stroke-linecap="square" stroke-linejoin="miter"></path>

  
  <path d="M 170 240 L 277.5 246 L 385 236 L 492.5 215 L 600 158 L 707.5 150 L 815 118 L 922.5 130 L 1030 108" fill="none" stroke="#fff" stroke-width="1.2" stroke-opacity="0.27" stroke-linecap="square" stroke-linejoin="miter"></path>

  
  <path d="M 170 228 L 277.5 232 L 385 216 L 492.5 222 L 600 168 L 707.5 155 L 815 142 L 922.5 112 L 1030 108" fill="none" stroke="#fff" stroke-width="1.2" stroke-opacity="0.32" stroke-linecap="square" stroke-linejoin="miter"></path>

  
  <path d="M 170 242 L 277.5 238 L 385 237 L 492.5 222 L 600 182 L 707.5 158 L 815 150 L 922.5 135 L 1030 144" fill="none" stroke="#fff" stroke-width="1.2" stroke-opacity="0.26" stroke-linecap="square" stroke-linejoin="miter"></path>

  
  <path d="M 170 244 L 277.5 235 L 385 237 L 492.5 210 L 600 175 L 707.5 135 L 815 160 L 922.5 115 L 1030 108" fill="none" stroke="#fff" stroke-width="1.2" stroke-opacity="0.34" stroke-linecap="square" stroke-linejoin="miter"></path>

  
  <path d="M 170 235 L 277.5 244 L 385 228 L 492.5 218 L 600 155 L 707.5 168 L 815 125 L 922.5 152 L 1030 125" fill="none" stroke="#fff" stroke-width="1.2" stroke-opacity="0.28" stroke-linecap="square" stroke-linejoin="miter"></path>

  
  <path d="M 170 232 L 277.5 241 L 385 237 L 492.5 220 L 600 165 L 707.5 138 L 815 118 L 922.5 105 L 1030 95" fill="none" stroke="#fff" stroke-width="1.2" stroke-opacity="0.25" stroke-linecap="square" stroke-linejoin="miter"></path>

  
  <path d="M 170 246 L 277.5 242 L 385 232 L 492.5 218 L 600 185 L 707.5 138 L 815 160 L 922.5 145 L 1030 150" fill="none" stroke="#fff" stroke-width="1.2" stroke-opacity="0.24" stroke-linecap="square" stroke-linejoin="miter"></path>

  
  <path d="M 170 237 L 277.5 228 L 385 238 L 492.5 214 L 600 170 L 707.5 135 L 815 145 L 922.5 118 L 1030 112" fill="none" stroke="#fff" stroke-width="1.2" stroke-opacity="0.29" stroke-linecap="square" stroke-linejoin="miter"></path>

  
  <path d="M 170 225 L 277.5 220 L 385 210 L 492.5 205 L 600 160 L 707.5 155 L 815 128 L 922.5 145 L 1030 130" fill="none" stroke="#fff" stroke-width="1.2" stroke-opacity="0.27" stroke-linecap="square" stroke-linejoin="miter"></path>

  
  
  
  <path d="M 170 222 L 277.5 226 L 385 201 L 492.5 195 L 600 158 L 707.5 132 L 815 125 L 922.5 118 L 1030 100" fill="none" stroke="#fff" stroke-width="1.2" stroke-opacity="0.30" stroke-linecap="square" stroke-linejoin="miter"></path>

  
  <path d="M 170 223 L 277.5 216 L 385 215 L 492.5 185 L 600 148 L 707.5 163 L 815 128 L 922.5 118 L 1030 105" fill="none" stroke="#fff" stroke-width="1.2" stroke-opacity="0.27" stroke-linecap="square" stroke-linejoin="miter"></path>


  
  <path d="M 170 224 L 277.5 220 L 385 210 L 492.5 183 L 600 172 L 707.5 138 L 815 158 L 922.5 118 L 1030 132" fill="none" stroke="#fff" stroke-width="1.2" stroke-opacity="0.28" stroke-linecap="square" stroke-linejoin="miter"></path>

  
  <path d="M 170 221 L 277.5 229 L 385 202 L 492.5 192 L 600 152 L 707.5 165 L 815 128 L 922.5 152 L 1030 135" fill="none" stroke="#fff" stroke-width="1.2" stroke-opacity="0.31" stroke-linecap="square" stroke-linejoin="miter"></path>

<g stroke="#cfe0f6" stroke-width="1" stroke-opacity="0.44" fill="none">
    <line x1="170" y1="234.3" x2="277.5" y2="231.2"></line>
    <line x1="277.5" y1="231.2" x2="385" y2="218.8"></line>
    <line x1="385" y1="218.8" x2="492.5" y2="200.4"></line>
    <line x1="492.5" y1="200.4" x2="600" y2="164.4"></line>
    <line x1="600" y1="164.4" x2="707.5" y2="141.8"></line>
    <line x1="707.5" y1="141.8" x2="815" y2="131.5"></line>
  </g>

  
  <g stroke="#b9ccef" stroke-width="1" stroke-opacity="0.24" fill="none">
    <line x1="815" y1="131.5" x2="922.5" y2="122.5"></line>
    <line x1="922.5" y1="122.5" x2="1030" y2="121.2"></line>
  </g>

  
  <path d="M 170 234.3 C 223.8 234.3, 223.8 231.2, 277.5 231.2&#xA;           C 331.3 231.2, 331.3 218.8, 385 218.8&#xA;           C 438.8 218.8, 438.8 200.4, 492.5 200.4&#xA;           C 546.3 200.4, 546.3 164.4, 600 164.4&#xA;           C 653.8 164.4, 653.8 141.8, 707.5 141.8&#xA;           C 761.3 141.8, 761.3 131.5, 815 131.5&#xA;           C 868.8 131.5, 868.8 122.5, 922.5 122.5&#xA;           C 976.3 122.5, 976.3 121.2, 1030 121.2" fill="none" stroke="url(#rb)" stroke-width="32" stroke-opacity="0.10" stroke-linecap="round" filter="url(#glowWide)"></path>
  <path d="M 170 234.3 C 223.8 234.3, 223.8 231.2, 277.5 231.2&#xA;           C 331.3 231.2, 331.3 218.8, 385 218.8&#xA;           C 438.8 218.8, 438.8 200.4, 492.5 200.4&#xA;           C 546.3 200.4, 546.3 164.4, 600 164.4&#xA;           C 653.8 164.4, 653.8 141.8, 707.5 141.8&#xA;           C 761.3 141.8, 761.3 131.5, 815 131.5&#xA;           C 868.8 131.5, 868.8 122.5, 922.5 122.5&#xA;           C 976.3 122.5, 976.3 121.2, 1030 121.2" fill="none" stroke="url(#rb)" stroke-width="7" stroke-opacity="0.24" stroke-linecap="round" filter="url(#glowMid)"></path>
  <path d="M 170 234.3 C 223.8 234.3, 223.8 231.2, 277.5 231.2&#xA;           C 331.3 231.2, 331.3 218.8, 385 218.8&#xA;           C 438.8 218.8, 438.8 200.4, 492.5 200.4&#xA;           C 546.3 200.4, 546.3 164.4, 600 164.4&#xA;           C 653.8 164.4, 653.8 141.8, 707.5 141.8&#xA;           C 761.3 141.8, 761.3 131.5, 815 131.5&#xA;           C 868.8 131.5, 868.8 122.5, 922.5 122.5&#xA;           C 976.3 122.5, 976.3 121.2, 1030 121.2" fill="none" stroke="url(#rb)" stroke-width="1.8" stroke-opacity="0.82" stroke-linecap="round"></path>

  
  <line x1="600" y1="68" x2="600" y2="306" stroke="#fff" stroke-opacity="0.44" stroke-width="1" stroke-dasharray="1 6" stroke-linecap="round"></line>

  
  <g fill="#eef3ff" fill-opacity="1.0" stroke="none">
    <circle cx="170" cy="234.3" r="3.4"></circle>
    <circle cx="277.5" cy="231.2" r="3.4"></circle>
    <circle cx="385" cy="218.8" r="3.4"></circle>
    <circle cx="492.5" cy="200.4" r="3.4"></circle>
    <circle cx="707.5" cy="141.8" r="3.4"></circle>
    <circle cx="815" cy="131.5" r="3.4"></circle>
    <circle cx="922.5" cy="122.5" r="3.4"></circle>
    <circle cx="1030" cy="121.2" r="3.4"></circle>
  </g>

  
  <circle cx="600" cy="164.4" r="16" fill="url(#moon)"></circle>
  <circle cx="600" cy="164.4" r="4" fill="#fff"></circle>

  
  <line x1="148" y1="328" x2="1064" y2="328" stroke="#fff" stroke-opacity="0.34" stroke-width="1" stroke-dasharray="1 7" stroke-linecap="round" marker-end="url(#arrow)"></line>
</svg>